<svg width="32" height="8" viewBox="0 0 32 8" fill="none" xmlns="http://www.w3.org/2000/svg">
<path d="M3.87205 0.992001C3.71205 1.24267 3.51472 1.49867 3.28005 1.76C3.05072 2.016 2.79472 2.272 2.51205 2.528C2.23472 2.784 1.93605 3.02933 1.61605 3.264C1.29605 3.49333 0.965386 3.704 0.624053 3.896C0.581386 3.816 0.522719 3.728 0.448053 3.632C0.378719 3.53067 0.304053 3.43467 0.224053 3.344C0.149386 3.248 0.0747194 3.16533 5.27352e-05 3.096C0.352053 2.90933 0.693386 2.69333 1.02405 2.448C1.36005 2.20267 1.67472 1.94133 1.96805 1.664C2.26139 1.38133 2.52272 1.09867 2.75205 0.816C2.98139 0.533334 3.16805 0.261334 3.31205 4.76837e-07H4.34405C4.56272 0.330667 4.80539 0.645334 5.07205 0.944001C5.33872 1.23733 5.62405 1.51467 5.92805 1.776C6.23205 2.032 6.54405 2.264 6.86405 2.472C7.18939 2.68 7.51739 2.85333 7.84805 2.992C7.72005 3.11467 7.60005 3.256 7.48805 3.416C7.38139 3.57067 7.28005 3.72267 7.18405 3.872C6.86405 3.696 6.54405 3.496 6.22405 3.272C5.90405 3.04267 5.59472 2.8 5.29605 2.544C5.00272 2.288 4.73339 2.02933 4.48805 1.768C4.24805 1.50133 4.04272 1.24267 3.87205 0.992001ZM3.36805 2.704H4.38405V7.496H3.36805V2.704ZM11.2321 0.168001H12.3361C12.3254 0.392001 12.3067 0.680001 12.2801 1.032C12.2534 1.384 12.2027 1.776 12.1281 2.208C12.0587 2.63467 11.9521 3.08267 11.8081 3.552C11.6641 4.02133 11.4667 4.49067 11.2161 4.96C10.9707 5.424 10.6561 5.86933 10.2721 6.296C9.89339 6.71733 9.43205 7.09333 8.88805 7.424C8.80272 7.30133 8.68539 7.17067 8.53605 7.032C8.39205 6.89333 8.24005 6.768 8.08005 6.656C8.61339 6.35733 9.06139 6.016 9.42405 5.632C9.78672 5.248 10.0827 4.84533 10.3121 4.424C10.5414 3.99733 10.7174 3.57067 10.8401 3.144C10.9627 2.712 11.0507 2.304 11.1041 1.92C11.1574 1.536 11.1894 1.192 11.2001 0.888C11.2107 0.584001 11.2214 0.344001 11.2321 0.168001ZM12.2961 0.384001C12.3014 0.485334 12.3121 0.645334 12.3281 0.864001C12.3441 1.08267 12.3761 1.344 12.4241 1.648C12.4721 1.952 12.5441 2.28267 12.6401 2.64C12.7414 2.992 12.8747 3.35467 13.0401 3.728C13.2054 4.10133 13.4107 4.46667 13.6561 4.824C13.9014 5.18133 14.1974 5.512 14.5441 5.816C14.8961 6.12 15.3067 6.384 15.7761 6.608C15.6214 6.72 15.4774 6.85067 15.3441 7C15.2161 7.14933 15.1121 7.29067 15.0321 7.424C14.5414 7.17867 14.1121 6.888 13.7441 6.552C13.3814 6.21067 13.0694 5.84267 12.8081 5.448C12.5521 5.048 12.3387 4.64267 12.1681 4.232C11.9974 3.82133 11.8587 3.41867 11.7521 3.024C11.6507 2.624 11.5734 2.25333 11.5201 1.912C11.4667 1.57067 11.4294 1.27467 11.4081 1.024C11.3921 0.773334 11.3787 0.592001 11.3681 0.48L12.2961 0.384001ZM16.7041 0.664001L17.3201 0.0800009C17.4641 0.197334 17.6187 0.328001 17.7841 0.472001C17.9547 0.616001 18.1121 0.760001 18.2561 0.904001C18.4054 1.048 18.5254 1.17867 18.6161 1.296L17.9601 1.96C17.8747 1.84267 17.7627 1.70667 17.6241 1.552C17.4854 1.39733 17.3334 1.24267 17.1681 1.088C17.0081 0.928001 16.8534 0.786667 16.7041 0.664001ZM17.2241 7.384L17.0001 6.536L17.1681 6.24L18.7521 4.904C18.7947 5.032 18.8507 5.176 18.9201 5.336C18.9947 5.49067 19.0587 5.61333 19.1121 5.704C18.7441 6.01867 18.4427 6.27467 18.2081 6.472C17.9787 6.66933 17.7974 6.82667 17.6641 6.944C17.5361 7.06133 17.4374 7.152 17.3681 7.216C17.3041 7.28 17.2561 7.336 17.2241 7.384ZM16.1841 2.448H17.6321V3.368H16.1841V2.448ZM19.8881 0.240001H22.0721V1.128H19.8881V0.240001ZM18.9521 3.456H22.6001V4.344H18.9521V3.456ZM22.3121 3.456H22.4801L22.6401 3.416L23.2321 3.664C23.0667 4.23467 22.8427 4.73067 22.5601 5.152C22.2827 5.57333 21.9547 5.936 21.5761 6.24C21.2027 6.53867 20.7841 6.78933 20.3201 6.992C19.8614 7.19467 19.3681 7.35733 18.8401 7.48C18.7974 7.35733 18.7334 7.21333 18.6481 7.048C18.5627 6.88267 18.4801 6.74933 18.4001 6.648C18.8801 6.55733 19.3281 6.432 19.7441 6.272C20.1654 6.10667 20.5441 5.89867 20.8801 5.648C21.2214 5.39733 21.5121 5.10133 21.7521 4.76C21.9974 4.41867 22.1841 4.02933 22.3121 3.592V3.456ZM20.0001 4.192C20.2081 4.608 20.4881 4.98133 20.8401 5.312C21.1921 5.63733 21.6081 5.91467 22.0881 6.144C22.5734 6.368 23.1121 6.536 23.7041 6.648C23.6347 6.712 23.5627 6.79467 23.4881 6.896C23.4187 6.99733 23.3494 7.10133 23.2801 7.208C23.2161 7.31467 23.1627 7.41333 23.1201 7.504C22.1867 7.28 21.3974 6.912 20.7521 6.4C20.1067 5.888 19.5894 5.24267 19.2001 4.464L20.0001 4.192ZM19.6561 0.240001H20.5521V1.136C20.5521 1.40267 20.5147 1.67467 20.4401 1.952C20.3707 2.22933 20.2347 2.49067 20.0321 2.736C19.8347 2.98133 19.5414 3.192 19.1521 3.368C19.1201 3.304 19.0641 3.22667 18.9841 3.136C18.9041 3.04 18.8214 2.94933 18.7361 2.864C18.6561 2.77333 18.5841 2.70667 18.5201 2.664C18.8614 2.52 19.1121 2.36267 19.2721 2.192C19.4321 2.02133 19.5361 1.84267 19.5841 1.656C19.6321 1.46933 19.6561 1.28533 19.6561 1.104V0.240001ZM21.6241 0.240001H22.5281V1.992C22.5281 2.10933 22.5361 2.192 22.5521 2.24C22.5734 2.288 22.6134 2.312 22.6721 2.312C22.6987 2.312 22.7387 2.312 22.7921 2.312C22.8454 2.312 22.8987 2.312 22.9521 2.312C23.0107 2.312 23.0534 2.312 23.0801 2.312C23.1441 2.312 23.2187 2.30933 23.3041 2.304C23.3894 2.29333 23.4587 2.28 23.5121 2.264C23.5227 2.38133 23.5334 2.51467 23.5441 2.664C23.5547 2.81333 23.5707 2.944 23.5921 3.056C23.5281 3.08267 23.4507 3.10133 23.3601 3.112C23.2747 3.11733 23.1867 3.12 23.0961 3.12C23.0534 3.12 22.9974 3.12 22.9281 3.12C22.8641 3.12 22.8001 3.12 22.7361 3.12C22.6721 3.12 22.6187 3.12 22.5761 3.12C22.3147 3.12 22.1147 3.08 21.9761 3C21.8374 2.92 21.7441 2.79733 21.6961 2.632C21.6481 2.46133 21.6241 2.24267 21.6241 1.976V0.240001ZM17.2241 7.384C17.1974 7.304 17.1547 7.21067 17.0961 7.104C17.0427 7.00267 16.9841 6.90133 16.9201 6.8C16.8561 6.704 16.7974 6.62667 16.7441 6.568C16.8027 6.52533 16.8614 6.46667 16.9201 6.392C16.9841 6.31733 17.0374 6.22933 17.0801 6.128C17.1227 6.02133 17.1441 5.90667 17.1441 5.784V2.448H18.0641V6.44C18.0641 6.44 18.0214 6.47467 17.9361 6.544C17.8507 6.608 17.7521 6.688 17.6401 6.784C17.5334 6.88 17.4374 6.98133 17.3521 7.088C17.2667 7.2 17.2241 7.29867 17.2241 7.384ZM29.2161 0.928001V1.392H30.1441V0.928001H29.2161ZM27.4321 0.928001V1.392H28.3441V0.928001H27.4321ZM25.6641 0.928001V1.392H26.5521V0.928001H25.6641ZM24.7441 0.288001H31.1121V2.032H24.7441V0.288001ZM24.3841 2.344H31.4161V3.056H24.3841V2.344ZM25.1921 6.488H31.5921V7.216H25.1921V6.488ZM24.8001 3.48H25.7761V7.504H24.8001V3.48ZM27.2001 4.624V4.912H29.9201V4.624H27.2001ZM27.2001 5.384V5.68H29.9201V5.384H27.2001ZM27.2001 3.872V4.152H29.9201V3.872H27.2001ZM26.3121 3.368H30.8401V6.176H26.3121V3.368ZM27.4961 1.88L28.4641 1.936C28.4267 2.224 28.3841 2.528 28.3361 2.848C28.2881 3.16267 28.2427 3.42933 28.2001 3.648H27.2721C27.3201 3.41333 27.3627 3.13333 27.4001 2.808C27.4374 2.47733 27.4694 2.168 27.4961 1.88Z" fill="white"/>
</svg>
