<svg width="32" height="8" viewBox="0 0 32 8" fill="none" xmlns="http://www.w3.org/2000/svg">
<path d="M3.87199 1.01605C3.71199 1.26672 3.51466 1.52272 3.27999 1.78405C3.05066 2.04005 2.79466 2.29605 2.51199 2.55205C2.23466 2.80805 1.93599 3.05338 1.61599 3.28805C1.29599 3.51738 0.965325 3.72805 0.623992 3.92005C0.581325 3.84005 0.522658 3.75205 0.447992 3.65605C0.378658 3.55472 0.303992 3.45872 0.223992 3.36805C0.149325 3.27205 0.0746584 3.18938 -8.29995e-06 3.12005C0.351992 2.93338 0.693325 2.71738 1.02399 2.47205C1.35999 2.22672 1.67466 1.96538 1.96799 1.68805C2.26133 1.40538 2.52266 1.12272 2.75199 0.840048C2.98133 0.557382 3.16799 0.285382 3.31199 0.0240483H4.34399C4.56266 0.354715 4.80533 0.669382 5.07199 0.968049C5.33866 1.26138 5.62399 1.53872 5.92799 1.80005C6.23199 2.05605 6.54399 2.28805 6.86399 2.49605C7.18933 2.70405 7.51733 2.87738 7.84799 3.01605C7.71999 3.13872 7.59999 3.28005 7.48799 3.44005C7.38133 3.59472 7.27999 3.74672 7.18399 3.89605C6.86399 3.72005 6.54399 3.52005 6.22399 3.29605C5.90399 3.06672 5.59466 2.82405 5.29599 2.56805C5.00266 2.31205 4.73333 2.05338 4.48799 1.79205C4.24799 1.52538 4.04266 1.26672 3.87199 1.01605ZM3.36799 2.72805H4.38399V7.52005H3.36799V2.72805ZM11.232 0.192049H12.336C12.3253 0.416049 12.3067 0.704048 12.28 1.05605C12.2533 1.40805 12.2027 1.80005 12.128 2.23205C12.0587 2.65872 11.952 3.10672 11.808 3.57605C11.664 4.04538 11.4667 4.51472 11.216 4.98405C10.9707 5.44805 10.656 5.89338 10.272 6.32005C9.89333 6.74138 9.43199 7.11738 8.88799 7.44805C8.80266 7.32538 8.68533 7.19472 8.53599 7.05605C8.39199 6.91738 8.23999 6.79205 8.07999 6.68005C8.61333 6.38138 9.06133 6.04005 9.42399 5.65605C9.78666 5.27205 10.0827 4.86938 10.312 4.44805C10.5413 4.02138 10.7173 3.59472 10.84 3.16805C10.9627 2.73605 11.0507 2.32805 11.104 1.94405C11.1573 1.56005 11.1893 1.21605 11.2 0.912048C11.2107 0.608048 11.2213 0.368049 11.232 0.192049ZM12.296 0.408049C12.3013 0.509382 12.312 0.669382 12.328 0.888049C12.344 1.10672 12.376 1.36805 12.424 1.67205C12.472 1.97605 12.544 2.30672 12.64 2.66405C12.7413 3.01605 12.8747 3.37872 13.04 3.75205C13.2053 4.12538 13.4107 4.49072 13.656 4.84805C13.9013 5.20538 14.1973 5.53605 14.544 5.84005C14.896 6.14405 15.3067 6.40805 15.776 6.63205C15.6213 6.74405 15.4773 6.87472 15.344 7.02405C15.216 7.17338 15.112 7.31472 15.032 7.44805C14.5413 7.20272 14.112 6.91205 13.744 6.57605C13.3813 6.23472 13.0693 5.86672 12.808 5.47205C12.552 5.07205 12.3387 4.66672 12.168 4.25605C11.9973 3.84538 11.8587 3.44272 11.752 3.04805C11.6507 2.64805 11.5733 2.27738 11.52 1.93605C11.4667 1.59472 11.4293 1.29872 11.408 1.04805C11.392 0.797382 11.3787 0.616048 11.368 0.504048L12.296 0.408049ZM16.088 5.02405C16.3973 4.96005 16.7707 4.87472 17.208 4.76805C17.6453 4.66138 18.0933 4.55472 18.552 4.44805L18.664 5.29605C18.2747 5.41872 17.8853 5.54138 17.496 5.66405C17.112 5.78672 16.7547 5.89872 16.424 6.00005L16.088 5.02405ZM18.144 0.0560484H19.088V7.51205H18.144V0.0560484ZM16.592 0.936049H17.504V5.24005H16.592V0.936049ZM20.312 1.43205H23.696V2.33605H20.312V1.43205ZM20.32 4.86374e-05L21.304 0.192049C21.192 0.688049 21.0507 1.17072 20.88 1.64005C20.7147 2.10938 20.5227 2.54672 20.304 2.95205C20.0907 3.35738 19.8533 3.70938 19.592 4.00805C19.544 3.94405 19.4747 3.86672 19.384 3.77605C19.2933 3.68538 19.1973 3.59472 19.096 3.50405C19 3.41338 18.9173 3.34138 18.848 3.28805C19.088 3.03738 19.3013 2.73872 19.488 2.39205C19.68 2.04538 19.8427 1.66672 19.976 1.25605C20.1147 0.845382 20.2293 0.426715 20.32 4.86374e-05ZM22.328 1.92005L23.296 2.05605C23.1253 2.95738 22.8853 3.75738 22.576 4.45605C22.272 5.14938 21.8747 5.75205 21.384 6.26405C20.8987 6.77072 20.3013 7.19738 19.592 7.54405C19.5653 7.46405 19.52 7.36805 19.456 7.25605C19.392 7.14938 19.3227 7.04005 19.248 6.92805C19.1787 6.82138 19.1147 6.73338 19.056 6.66405C19.7013 6.38672 20.2427 6.03205 20.68 5.60005C21.1173 5.16272 21.4693 4.64005 21.736 4.03205C22.0027 3.41872 22.2 2.71472 22.328 1.92005ZM20.688 2.04805C20.8267 2.75738 21.024 3.41872 21.28 4.03205C21.5413 4.64005 21.8773 5.17072 22.288 5.62405C22.6987 6.07738 23.1973 6.42938 23.784 6.68005C23.7147 6.74405 23.6347 6.82405 23.544 6.92005C23.4587 7.02138 23.3787 7.12272 23.304 7.22405C23.2293 7.33072 23.168 7.42938 23.12 7.52005C22.4907 7.20538 21.9627 6.79205 21.536 6.28005C21.1093 5.76805 20.7573 5.17072 20.48 4.48805C20.208 3.80005 19.9867 3.04272 19.816 2.21605L20.688 2.04805ZM24.336 0.480049H31.488V1.27205H24.336V0.480049ZM26.016 1.95205H31.56V2.76005H26.016V1.95205ZM24.84 3.26405H25.904V4.03205H24.84V3.26405ZM24.152 4.50405H25.864V5.28805H24.152V4.50405ZM26.968 6.06405H29.04V6.66405H26.968V6.06405ZM26.104 4.86374e-05H27.056V1.68005H26.104V4.86374e-05ZM28.736 4.86374e-05H29.696V1.70405H28.736V4.86374e-05ZM27.768 3.42405H28.392V4.32005H27.768V3.42405ZM24.48 2.04805H25.168V4.19205H24.48V2.04805ZM27.768 5.37605H28.392V6.28805H27.768V5.37605ZM27.048 4.04805H29.008V5.64805H27.048V5.08005H28.352V4.61605H27.048V4.04805ZM26.656 3.07205H28.984V3.67205H27.328V7.10405H26.656V3.07205ZM25.6 1.95205H26.384V4.36805C26.384 4.69338 26.3733 5.04805 26.352 5.43205C26.3307 5.81605 26.28 6.19205 26.2 6.56005C26.1253 6.92805 26.0133 7.25338 25.864 7.53605C25.816 7.49872 25.7467 7.45338 25.656 7.40005C25.5707 7.34672 25.48 7.29605 25.384 7.24805C25.2933 7.20538 25.2133 7.17338 25.144 7.15205C25.288 6.88538 25.3893 6.59205 25.448 6.27205C25.512 5.95205 25.552 5.62672 25.568 5.29605C25.5893 4.96538 25.6 4.65338 25.6 4.36005V1.95205ZM29.008 1.49605H29.856C29.856 2.33338 29.888 3.07472 29.952 3.72005C30.016 4.36538 30.0987 4.90938 30.2 5.35205C30.3067 5.78938 30.416 6.12272 30.528 6.35205C30.6453 6.57605 30.7573 6.68805 30.864 6.68805C30.912 6.68805 30.952 6.65872 30.984 6.60005C31.016 6.53605 31.0427 6.42938 31.064 6.28005C31.0853 6.13072 31.1013 5.92805 31.112 5.67205C31.1973 5.75738 31.2987 5.84005 31.416 5.92005C31.5333 5.99472 31.6427 6.05072 31.744 6.08805C31.712 6.48805 31.656 6.79205 31.576 7.00005C31.5013 7.20805 31.4 7.34672 31.272 7.41605C31.1493 7.49072 30.9893 7.52805 30.792 7.52805C30.5093 7.52805 30.2613 7.38405 30.048 7.09605C29.8347 6.81338 29.6533 6.40805 29.504 5.88005C29.36 5.34672 29.2453 4.71205 29.16 3.97605C29.08 3.23472 29.0293 2.40805 29.008 1.49605ZM30.168 1.62405L30.736 1.20805C30.8587 1.28272 30.9867 1.37605 31.12 1.48805C31.2533 1.59472 31.3547 1.69338 31.424 1.78405L30.824 2.24005C30.7653 2.14405 30.672 2.04005 30.544 1.92805C30.416 1.81072 30.2907 1.70938 30.168 1.62405ZM30.472 3.05605L31.32 3.19205C31.1173 4.15205 30.8187 5.00005 30.424 5.73605C30.0347 6.47205 29.5413 7.07472 28.944 7.54405C28.9013 7.49072 28.8373 7.42672 28.752 7.35205C28.672 7.28272 28.584 7.21072 28.488 7.13605C28.3973 7.06138 28.32 7.00538 28.256 6.96805C28.848 6.56272 29.3253 6.02405 29.688 5.35205C30.0507 4.68005 30.312 3.91472 30.472 3.05605ZM24.528 4.80005H25.208V5.48005C25.208 5.66672 25.1947 5.88272 25.168 6.12805C25.1413 6.37338 25.0853 6.61872 25 6.86405C24.9147 7.10938 24.7867 7.32805 24.616 7.52005C24.5573 7.45605 24.472 7.38672 24.36 7.31205C24.248 7.23738 24.152 7.17872 24.072 7.13605C24.2053 6.97072 24.304 6.78938 24.368 6.59205C24.4373 6.38938 24.48 6.18938 24.496 5.99205C24.5173 5.78938 24.528 5.61338 24.528 5.46405V4.80005Z" fill="white"/>
</svg>
