<svg width="32" height="8" viewBox="0 0 32 8" fill="none" xmlns="http://www.w3.org/2000/svg">
<path d="M3.87199 1.01605C3.71199 1.26672 3.51466 1.52272 3.27999 1.78405C3.05066 2.04005 2.79466 2.29605 2.51199 2.55205C2.23466 2.80805 1.93599 3.05338 1.61599 3.28805C1.29599 3.51738 0.965325 3.72805 0.623992 3.92005C0.581325 3.84005 0.522658 3.75205 0.447992 3.65605C0.378658 3.55472 0.303992 3.45872 0.223992 3.36805C0.149325 3.27205 0.0746584 3.18938 -8.29995e-06 3.12005C0.351992 2.93338 0.693325 2.71738 1.02399 2.47205C1.35999 2.22672 1.67466 1.96538 1.96799 1.68805C2.26133 1.40538 2.52266 1.12272 2.75199 0.840048C2.98133 0.557382 3.16799 0.285382 3.31199 0.0240483H4.34399C4.56266 0.354715 4.80533 0.669382 5.07199 0.968049C5.33866 1.26138 5.62399 1.53872 5.92799 1.80005C6.23199 2.05605 6.54399 2.28805 6.86399 2.49605C7.18933 2.70405 7.51733 2.87738 7.84799 3.01605C7.71999 3.13872 7.59999 3.28005 7.48799 3.44005C7.38133 3.59472 7.27999 3.74672 7.18399 3.89605C6.86399 3.72005 6.54399 3.52005 6.22399 3.29605C5.90399 3.06672 5.59466 2.82405 5.29599 2.56805C5.00266 2.31205 4.73333 2.05338 4.48799 1.79205C4.24799 1.52538 4.04266 1.26672 3.87199 1.01605ZM3.36799 2.72805H4.38399V7.52005H3.36799V2.72805ZM11.232 0.192049H12.336C12.3253 0.416049 12.3067 0.704048 12.28 1.05605C12.2533 1.40805 12.2027 1.80005 12.128 2.23205C12.0587 2.65872 11.952 3.10672 11.808 3.57605C11.664 4.04538 11.4667 4.51472 11.216 4.98405C10.9707 5.44805 10.656 5.89338 10.272 6.32005C9.89333 6.74138 9.43199 7.11738 8.88799 7.44805C8.80266 7.32538 8.68533 7.19472 8.53599 7.05605C8.39199 6.91738 8.23999 6.79205 8.07999 6.68005C8.61333 6.38138 9.06133 6.04005 9.42399 5.65605C9.78666 5.27205 10.0827 4.86938 10.312 4.44805C10.5413 4.02138 10.7173 3.59472 10.84 3.16805C10.9627 2.73605 11.0507 2.32805 11.104 1.94405C11.1573 1.56005 11.1893 1.21605 11.2 0.912048C11.2107 0.608048 11.2213 0.368049 11.232 0.192049ZM12.296 0.408049C12.3013 0.509382 12.312 0.669382 12.328 0.888049C12.344 1.10672 12.376 1.36805 12.424 1.67205C12.472 1.97605 12.544 2.30672 12.64 2.66405C12.7413 3.01605 12.8747 3.37872 13.04 3.75205C13.2053 4.12538 13.4107 4.49072 13.656 4.84805C13.9013 5.20538 14.1973 5.53605 14.544 5.84005C14.896 6.14405 15.3067 6.40805 15.776 6.63205C15.6213 6.74405 15.4773 6.87472 15.344 7.02405C15.216 7.17338 15.112 7.31472 15.032 7.44805C14.5413 7.20272 14.112 6.91205 13.744 6.57605C13.3813 6.23472 13.0693 5.86672 12.808 5.47205C12.552 5.07205 12.3387 4.66672 12.168 4.25605C11.9973 3.84538 11.8587 3.44272 11.752 3.04805C11.6507 2.64805 11.5733 2.27738 11.52 1.93605C11.4667 1.59472 11.4293 1.29872 11.408 1.04805C11.392 0.797382 11.3787 0.616048 11.368 0.504048L12.296 0.408049ZM16.472 0.848049L16.952 0.208048C17.1333 0.272048 17.3253 0.349382 17.528 0.440049C17.736 0.530715 17.9333 0.626715 18.12 0.728048C18.312 0.829382 18.4693 0.925382 18.592 1.01605L18.096 1.73605C17.9787 1.64538 17.8267 1.54672 17.64 1.44005C17.4587 1.32805 17.2667 1.22138 17.064 1.12005C16.8613 1.01338 16.664 0.922715 16.472 0.848049ZM16.248 2.67205C16.552 2.58672 16.912 2.48005 17.328 2.35205C17.7493 2.21872 18.176 2.08005 18.608 1.93605L18.768 2.75205C18.3893 2.89072 18.0053 3.02938 17.616 3.16805C17.2267 3.30672 16.8667 3.43472 16.536 3.55205L16.248 2.67205ZM19.616 0.0640483L20.512 0.200048C20.3787 0.594715 20.2 0.976048 19.976 1.34405C19.752 1.70672 19.456 2.04005 19.088 2.34405C19.0453 2.27472 18.984 2.20272 18.904 2.12805C18.824 2.04805 18.7413 1.97338 18.656 1.90405C18.576 1.82938 18.4987 1.77605 18.424 1.74405C18.744 1.50405 18.9973 1.23738 19.184 0.944048C19.376 0.645382 19.52 0.352048 19.616 0.0640483ZM19.952 0.688048H22.656V1.40005H19.448L19.952 0.688048ZM22.464 0.688048H22.608L22.76 0.656049L23.464 0.824049C23.384 1.05872 23.2933 1.30138 23.192 1.55205C23.0907 1.80272 22.9947 2.01605 22.904 2.19205L22.056 1.97605C22.1253 1.82672 22.1973 1.64272 22.272 1.42405C22.3467 1.20005 22.4107 0.992048 22.464 0.800048V0.688048ZM17.216 3.80805H22.704V5.92005H21.712V4.67205H18.16V6.00805H17.216V3.80805ZM19.456 4.88005H20.4C20.3307 5.23205 20.224 5.54938 20.08 5.83205C19.936 6.11472 19.7253 6.36538 19.448 6.58405C19.1707 6.80272 18.8 6.98938 18.336 7.14405C17.8773 7.30405 17.296 7.43472 16.592 7.53605C16.5707 7.45605 16.536 7.36538 16.488 7.26405C16.4453 7.16805 16.3947 7.07205 16.336 6.97605C16.2773 6.88005 16.2213 6.79738 16.168 6.72805C16.808 6.65872 17.328 6.57072 17.728 6.46405C18.1333 6.35738 18.4507 6.22938 18.68 6.08005C18.9093 5.92538 19.08 5.74938 19.192 5.55205C19.3093 5.35472 19.3973 5.13072 19.456 4.88005ZM19.952 6.40805L20.512 5.73605C20.7413 5.79472 20.9893 5.86405 21.256 5.94405C21.528 6.02405 21.8 6.10938 22.072 6.20005C22.3493 6.29072 22.608 6.38138 22.848 6.47205C23.0933 6.56272 23.304 6.64805 23.48 6.72805L22.888 7.48805C22.7227 7.40805 22.5227 7.32005 22.288 7.22405C22.0533 7.13338 21.8 7.03738 21.528 6.93605C21.2613 6.84005 20.992 6.74672 20.72 6.65605C20.4533 6.56005 20.1973 6.47738 19.952 6.40805ZM20.648 1.04005H21.592C21.5333 1.33872 21.4507 1.62405 21.344 1.89605C21.2427 2.16805 21.0987 2.42138 20.912 2.65605C20.7253 2.89072 20.48 3.10405 20.176 3.29605C19.8773 3.48805 19.504 3.65605 19.056 3.80005C19.0133 3.69872 18.9413 3.57872 18.84 3.44005C18.744 3.29605 18.6507 3.18672 18.56 3.11205C18.9493 3.00005 19.2693 2.86938 19.52 2.72005C19.776 2.57072 19.976 2.40805 20.12 2.23205C20.2693 2.05072 20.384 1.86138 20.464 1.66405C20.544 1.46138 20.6053 1.25338 20.648 1.04005ZM21.376 1.49605C21.504 1.73605 21.672 1.95472 21.88 2.15205C22.0933 2.34938 22.344 2.51738 22.632 2.65605C22.92 2.79472 23.2347 2.89872 23.576 2.96805C23.48 3.05338 23.3787 3.17072 23.272 3.32005C23.1653 3.46938 23.08 3.60272 23.016 3.72005C22.648 3.60805 22.3147 3.45605 22.016 3.26405C21.7173 3.06672 21.456 2.83472 21.232 2.56805C21.008 2.29605 20.8213 1.99472 20.672 1.66405L21.376 1.49605ZM25.424 0.0400486H26.304V7.49605H25.424V0.0400486ZM24.208 2.67205H27.488V3.56805H24.208V2.67205ZM25.248 3.14405L25.784 3.40805C25.7147 3.67472 25.6347 3.95738 25.544 4.25605C25.4533 4.54938 25.352 4.84272 25.24 5.13605C25.128 5.42938 25.0107 5.70672 24.888 5.96805C24.7653 6.22405 24.6347 6.44805 24.496 6.64005C24.4693 6.53872 24.4293 6.42938 24.376 6.31205C24.328 6.18938 24.2747 6.06938 24.216 5.95205C24.1627 5.83472 24.112 5.73338 24.064 5.64805C24.224 5.45072 24.3787 5.20805 24.528 4.92005C24.6827 4.62672 24.824 4.32538 24.952 4.01605C25.08 3.70138 25.1787 3.41072 25.248 3.14405ZM26.296 3.60805C26.3387 3.65072 26.4 3.71738 26.48 3.80805C26.5653 3.89872 26.6587 4.00272 26.76 4.12005C26.8613 4.23205 26.9573 4.34672 27.048 4.46405C27.144 4.57605 27.2293 4.67738 27.304 4.76805C27.384 4.85872 27.44 4.92805 27.472 4.97605L26.888 5.72805C26.8347 5.61072 26.7653 5.47472 26.68 5.32005C26.5947 5.16005 26.5013 4.99738 26.4 4.83205C26.2987 4.66138 26.2 4.50138 26.104 4.35205C26.008 4.20272 25.9253 4.08005 25.856 3.98405L26.296 3.60805ZM24.2 0.656049L24.872 0.480049C24.9413 0.672049 25.0027 0.880049 25.056 1.10405C25.1147 1.32805 25.1627 1.54672 25.2 1.76005C25.2373 1.97338 25.264 2.16538 25.28 2.33605L24.56 2.52805C24.5547 2.35738 24.5333 2.16538 24.496 1.95205C24.464 1.73338 24.4213 1.51205 24.368 1.28805C24.32 1.05872 24.264 0.848049 24.2 0.656049ZM26.832 0.440049L27.64 0.616048C27.576 0.834715 27.5067 1.05872 27.432 1.28805C27.3573 1.51738 27.2827 1.73872 27.208 1.95205C27.1333 2.16005 27.064 2.34405 27 2.50405L26.392 2.32805C26.4507 2.15738 26.5067 1.96272 26.56 1.74405C26.6187 1.52005 26.672 1.29338 26.72 1.06405C26.768 0.834715 26.8053 0.626715 26.832 0.440049ZM29.864 4.86374e-05H30.76V7.51205H29.864V4.86374e-05ZM27.472 5.00805L31.584 4.27205L31.728 5.16005L27.616 5.90405L27.472 5.00805ZM27.92 1.08805L28.392 0.440049C28.5413 0.525382 28.696 0.624049 28.856 0.736049C29.0213 0.848049 29.176 0.962715 29.32 1.08005C29.4693 1.19738 29.5867 1.30672 29.672 1.40805L29.176 2.12805C29.096 2.02138 28.984 1.90672 28.84 1.78405C28.7013 1.66138 28.552 1.53872 28.392 1.41605C28.232 1.29338 28.0747 1.18405 27.92 1.08805ZM27.56 3.10405L28.008 2.41605C28.168 2.49605 28.3333 2.59205 28.504 2.70405C28.6747 2.81072 28.8373 2.92005 28.992 3.03205C29.1467 3.13872 29.272 3.24272 29.368 3.34405L28.88 4.11205C28.7947 4.01072 28.6773 3.90138 28.528 3.78405C28.3787 3.66138 28.2187 3.54138 28.048 3.42405C27.8827 3.30138 27.72 3.19472 27.56 3.10405Z" fill="white"/>
</svg>
